<mxfile host="app.diagrams.net" modified="2021-03-25T07:10:42.613Z" agent="5.0 (Windows NT 10.0; Win64; x64) AppleWebKit/537.36 (KHTML, like Gecko) Chrome/89.0.4389.82 Safari/537.36" etag="xgHGwLyDdwIi8_wMWkeX" version="14.5.1" type="github">
  <diagram id="C5RBs43oDa-KdzZeNtuy" name="Page-1">
    <mxGraphModel dx="1422" dy="794" grid="1" gridSize="10" guides="1" tooltips="1" connect="1" arrows="1" fold="1" page="1" pageScale="1" pageWidth="827" pageHeight="1169" math="0" shadow="0">
      <root>
        <mxCell id="WIyWlLk6GJQsqaUBKTNV-0" />
        <mxCell id="WIyWlLk6GJQsqaUBKTNV-1" parent="WIyWlLk6GJQsqaUBKTNV-0" />
        <mxCell id="7LXVoBhubQ4y2hg5oTo8-12" style="edgeStyle=orthogonalEdgeStyle;rounded=0;orthogonalLoop=1;jettySize=auto;html=1;endArrow=blockThin;endFill=1;" edge="1" parent="WIyWlLk6GJQsqaUBKTNV-1" source="WIyWlLk6GJQsqaUBKTNV-3" target="7LXVoBhubQ4y2hg5oTo8-3">
          <mxGeometry relative="1" as="geometry" />
        </mxCell>
        <mxCell id="WIyWlLk6GJQsqaUBKTNV-3" value="开始" style="rounded=1;whiteSpace=wrap;html=1;fontSize=12;glass=0;strokeWidth=1;shadow=0;" parent="WIyWlLk6GJQsqaUBKTNV-1" vertex="1">
          <mxGeometry x="360" y="60" width="120" height="40" as="geometry" />
        </mxCell>
        <mxCell id="7LXVoBhubQ4y2hg5oTo8-13" style="edgeStyle=orthogonalEdgeStyle;rounded=0;orthogonalLoop=1;jettySize=auto;html=1;entryX=0.5;entryY=0;entryDx=0;entryDy=0;endArrow=blockThin;endFill=1;" edge="1" parent="WIyWlLk6GJQsqaUBKTNV-1" source="7LXVoBhubQ4y2hg5oTo8-3" target="7LXVoBhubQ4y2hg5oTo8-8">
          <mxGeometry relative="1" as="geometry" />
        </mxCell>
        <mxCell id="7LXVoBhubQ4y2hg5oTo8-3" value="获取物联网、报警表、离线表、校正表、工单表数据" style="rounded=0;whiteSpace=wrap;html=1;" vertex="1" parent="WIyWlLk6GJQsqaUBKTNV-1">
          <mxGeometry x="320" y="150" width="200" height="60" as="geometry" />
        </mxCell>
        <mxCell id="7LXVoBhubQ4y2hg5oTo8-7" style="edgeStyle=orthogonalEdgeStyle;rounded=0;orthogonalLoop=1;jettySize=auto;html=1;entryX=0.5;entryY=0;entryDx=0;entryDy=0;endArrow=blockThin;endFill=1;" edge="1" parent="WIyWlLk6GJQsqaUBKTNV-1" source="7LXVoBhubQ4y2hg5oTo8-4" target="7LXVoBhubQ4y2hg5oTo8-6">
          <mxGeometry relative="1" as="geometry" />
        </mxCell>
        <mxCell id="7LXVoBhubQ4y2hg5oTo8-4" value="与离线表、工单表比对" style="rounded=0;whiteSpace=wrap;html=1;" vertex="1" parent="WIyWlLk6GJQsqaUBKTNV-1">
          <mxGeometry x="320" y="380" width="200" height="60" as="geometry" />
        </mxCell>
        <mxCell id="7LXVoBhubQ4y2hg5oTo8-6" value="工单表、离线表中是否存在？" style="rhombus;whiteSpace=wrap;html=1;" vertex="1" parent="WIyWlLk6GJQsqaUBKTNV-1">
          <mxGeometry x="323" y="480" width="194" height="80" as="geometry" />
        </mxCell>
        <mxCell id="7LXVoBhubQ4y2hg5oTo8-10" style="edgeStyle=orthogonalEdgeStyle;rounded=0;orthogonalLoop=1;jettySize=auto;html=1;entryX=0.5;entryY=0;entryDx=0;entryDy=0;endArrow=blockThin;endFill=1;" edge="1" parent="WIyWlLk6GJQsqaUBKTNV-1" source="7LXVoBhubQ4y2hg5oTo8-8" target="7LXVoBhubQ4y2hg5oTo8-4">
          <mxGeometry relative="1" as="geometry" />
        </mxCell>
        <mxCell id="7LXVoBhubQ4y2hg5oTo8-8" value="过滤离线数据" style="rounded=0;whiteSpace=wrap;html=1;" vertex="1" parent="WIyWlLk6GJQsqaUBKTNV-1">
          <mxGeometry x="320" y="270" width="200" height="60" as="geometry" />
        </mxCell>
      </root>
    </mxGraphModel>
  </diagram>
</mxfile>
